
<svg width="24" height="24" viewBox="0 0 24 24" fill="none" xmlns="http://www.w3.org/2000/svg">
                            <circle cx="12.2365" cy="11.9977" r="7.6984" stroke="#253035"></circle>
                            <circle cx="13.0863" cy="15.2074" r="1.125" transform="rotate(-15 13.0863 15.2074)" stroke="#253035"></circle>
                            <circle cx="8.95254" cy="12.8212" r="1.125" transform="rotate(35 8.95254 12.8212)" stroke="#253035"></circle>
                            <circle cx="11.3388" cy="8.68734" r="1.125" transform="rotate(-15 11.3388 8.68734)" stroke="#253035"></circle>
                            <circle cx="15.4726" cy="11.0741" r="1.125" transform="rotate(35 15.4726 11.0741)" stroke="#253035"></circle>
                            <path d="M21.6686 9.04323V9.04323C22.1281 7.32816 21.1103 5.56528 19.3952 5.10573V5.10573M5.10638 4.60541V4.60541C5.56594 2.89034 7.32881 1.87254 9.04388 2.33209V2.33209M4.60606 18.8943V18.8943C2.89099 18.4347 1.87319 16.6718 2.33275 14.9568V14.9568M18.8949 19.3946V19.3946C18.4354 21.1097 16.6725 22.1275 14.9574 21.6679V21.6679" stroke="#253035" stroke-linecap="round"></path>
                            </svg>