<svg width="24" height="24" viewBox="0 0 24 24" fill="none" xmlns="http://www.w3.org/2000/svg">
                            <path d="M8.5 11.0181V16.0181" stroke="#253035" stroke-linecap="round" stroke-linejoin="round"></path>
                            <path d="M12 16.0181V13.1014C12 11.9505 12.8951 11.0181 14 11.0181V11.0181C15.1049 11.0181 16 11.9505 16 13.1014V16.0181" stroke="#253035" stroke-linecap="round" stroke-linejoin="round"></path>
                            <path d="M8.499 8.29307C8.375 8.29307 8.274 8.39407 8.275 8.51807C8.275 8.64207 8.376 8.74307 8.5 8.74307C8.624 8.74307 8.725 8.64207 8.725 8.51807C8.725 8.39307 8.624 8.29307 8.499 8.29307" stroke="#253035" stroke-linecap="round" stroke-linejoin="round"></path>
                            <path d="M4 8C4 6.93913 4.42143 5.92172 5.17157 5.17157C5.92172 4.42143 6.93913 4 8 4H16C17.0609 4 18.0783 4.42143 18.8284 5.17157C19.5786 5.92172 20 6.93913 20 8V16C20 17.0609 19.5786 18.0783 18.8284 18.8284C18.0783 19.5786 17.0609 20 16 20H8C6.93913 20 5.92172 19.5786 5.17157 18.8284C4.42143 18.0783 4 17.0609 4 16V8Z" stroke="#253035" stroke-linecap="round" stroke-linejoin="round"></path>
                            </svg>