<svg width="24" height="24" viewBox="0 0 24 24" fill="none" xmlns="http://www.w3.org/2000/svg">
                            <path d="M3 8.51807C3 7.58981 3.37928 6.69957 4.05442 6.04319C4.72955 5.38682 5.64522 5.01807 6.6 5.01807H17.4C18.3548 5.01807 19.2705 5.38682 19.9456 6.04319C20.6207 6.69957 21 7.58981 21 8.51807V15.5181C21 16.4463 20.6207 17.3366 19.9456 17.9929C19.2705 18.6493 18.3548 19.0181 17.4 19.0181H6.6C5.64522 19.0181 4.72955 18.6493 4.05442 17.9929C3.37928 17.3366 3 16.4463 3 15.5181V8.51807Z" stroke="#253035" stroke-linecap="round" stroke-linejoin="round"></path>
                            <path d="M10 9L15 12L10 15V9Z" stroke="#253035" stroke-linecap="round" stroke-linejoin="round"></path>
                            </svg>