    <svg
      width="57"
      height="57"
      viewBox="0 0 57 57"
      fill="none"
      xmlns="http://www.w3.org/2000/svg"
    >
      <rect
        x="0.5"
        y="0.5"
        width="56"
        height="56"
        rx="28"
        fill="#00BD92"
      ></rect>
      <g clip-path="url(#clip0_11547_4149)">
        <path
          d="M36.7364 40.4858C36.2722 40.4858 35.8361 40.3728 35.4 40.288C34.1058 40.0338 32.8116 39.7654 31.5174 39.5111C29.5339 39.1156 27.5364 38.7059 25.5529 38.3104C25.2575 38.2539 24.9761 38.1974 24.6807 38.1409C23.2881 37.8584 22.219 36.6859 22.0642 35.2733C21.9939 34.6235 22.1064 34.0161 22.3878 33.4228C22.7957 32.5894 23.2037 31.756 23.682 30.9649C24.2446 30.0326 24.8777 29.1427 25.5951 28.3092C26.0593 27.7583 26.5517 27.2356 27.0862 26.7271C27.8599 26.0067 28.6758 25.3428 29.548 24.7354C30.5327 24.0573 31.5878 23.4923 32.6569 22.9555C33.0648 22.7577 33.4587 22.56 33.9089 22.4893C34.6685 22.3622 35.3719 22.4893 36.033 22.8707C36.8208 23.3086 37.3553 23.9726 37.6086 24.8625C37.7352 25.3004 37.7914 25.7383 37.8899 26.1903C38.115 27.3345 38.3541 28.4929 38.5792 29.6371C38.9731 31.5864 39.3529 33.5358 39.7327 35.4852C39.8171 35.909 39.9156 36.3186 39.9719 36.7424C40.1125 37.7171 39.8453 38.5788 39.2263 39.3275C38.7621 39.8925 38.1572 40.2457 37.4538 40.4152C37.2147 40.4717 36.9755 40.4999 36.7505 40.4858H36.7364ZM24.6526 36.2198C24.7792 36.2904 24.8777 36.3328 24.9902 36.3469C26.7205 36.7 28.4508 37.0391 30.181 37.3922C32.2489 37.8019 34.3309 38.2256 36.3988 38.6494C37.4257 38.8613 38.3823 37.9572 38.1572 36.8695C37.8899 35.5417 37.6226 34.2139 37.3694 32.9002C36.9333 30.6824 36.4972 28.4787 36.0471 26.261C35.9768 25.9078 35.9346 25.5547 35.822 25.2156C35.822 25.1733 35.8079 25.1309 35.7657 25.1168C35.7235 25.1168 35.7095 25.1733 35.6954 25.2015C35.4 25.7807 35.1186 26.3457 34.8232 26.9249C34.359 27.8289 33.8104 28.6906 33.1914 29.5099C32.5303 30.3999 31.7988 31.2333 30.9969 32.0102C30.6031 32.3775 30.2092 32.7448 29.8012 33.0838C28.4367 34.2139 26.9315 35.1179 25.3278 35.8807C25.1027 35.9796 24.8917 36.0926 24.6526 36.2198ZM34.0917 24.3398C34.0917 24.3398 33.9933 24.3398 33.9511 24.3681C33.7401 24.4387 33.5431 24.5658 33.3321 24.6647C32.4881 25.0744 31.644 25.5264 30.8563 26.0491C29.6043 26.8825 28.4508 27.8431 27.4379 28.959C26.8612 29.5806 26.3407 30.2445 25.8483 30.9508C25.2294 31.8407 24.7229 32.7871 24.2446 33.7477C24.1321 33.9879 23.9914 34.2139 23.907 34.4681C23.907 34.4964 23.8789 34.5246 23.907 34.5529C23.9352 34.5811 23.9633 34.5529 23.9914 34.5388C24.1884 34.4399 24.3853 34.341 24.5823 34.2421C25.778 33.663 26.9315 33.0132 28.0006 32.208C29.0275 31.4311 29.97 30.5694 30.8281 29.5947C31.5174 28.8036 32.1223 27.9702 32.6709 27.0661C33.0789 26.4022 33.4165 25.6959 33.7682 25.0037C33.8807 24.7919 33.9792 24.58 34.0917 24.354V24.3398Z"
          fill="white"
        ></path>
        <path
          d="M23.3303 22.5035C23.6397 22.5177 24.0055 22.4753 24.3853 22.5177C25.0043 22.5883 25.5248 23.1251 25.581 23.7466C25.6092 24.0009 25.581 24.241 25.4685 24.4812C25.4404 24.5518 25.4685 24.5942 25.5107 24.6507C25.6795 24.8202 25.8483 24.9897 26.0171 25.1592C26.2703 25.4276 26.3688 25.7384 26.2563 26.1056C26.1437 26.4729 25.8764 26.6707 25.5107 26.7272C25.2434 26.7696 25.0043 26.6989 24.8073 26.5012C24.4838 26.1904 24.1602 25.8655 23.8508 25.5406C23.5694 25.244 23.4709 24.8626 23.5131 24.4529C23.5131 24.3399 23.485 24.3258 23.4006 24.3258C22.8098 24.3258 22.233 24.3258 21.6422 24.3258C21.3046 24.3258 20.981 24.2551 20.6856 24.0574C20.0385 23.6195 19.8134 22.7013 20.1933 22.0232C20.2495 21.9385 20.2214 21.9244 20.137 21.9244C19.8134 21.9244 19.4899 21.9385 19.1945 21.8255C18.9553 21.7266 18.7303 21.6136 18.5474 21.43C18.2238 21.1051 17.9003 20.7802 17.5768 20.4553C17.2251 20.1021 17.2391 19.5512 17.5768 19.1981C17.9284 18.8449 18.4771 18.8308 18.8428 19.1839C19.1242 19.4664 19.4055 19.7348 19.6728 20.0174C19.7431 20.088 19.8134 20.1304 19.926 20.1162C20.2214 20.1162 20.5309 20.1162 20.8263 20.1162C22.022 20.1162 22.7676 21.3311 22.2471 22.4046C22.2049 22.4894 22.219 22.5177 22.3174 22.5177C22.641 22.5177 22.9645 22.5177 23.3584 22.5177L23.3303 22.5035Z"
          fill="white"
        ></path>
        <path
          d="M20.8826 27.49C21.4312 27.5182 21.9095 27.6877 22.3034 28.0832C22.5425 28.3093 22.7676 28.5494 23.0067 28.7754C23.3865 29.1568 23.3865 29.7077 23.0208 30.075C22.6832 30.4282 22.1064 30.4282 21.7407 30.075C21.5297 29.8772 21.3187 29.6654 21.1217 29.4535C20.9951 29.3263 20.8685 29.2981 20.7138 29.3546C20.3761 29.4676 20.0385 29.5806 19.6868 29.6936C19.2226 29.849 18.7865 29.6088 18.6037 29.2698C18.3505 28.7895 18.5333 28.2104 19.0398 27.9985C19.518 27.8007 20.0104 27.6312 20.5028 27.5182C20.6294 27.49 20.756 27.4758 20.8685 27.4758L20.8826 27.49Z"
          fill="white"
        ></path>
        <path
          d="M25.6936 17.4323C25.6936 17.5171 25.6655 17.616 25.6374 17.7149C25.5248 18.0398 25.4264 18.3788 25.2998 18.7037C25.2435 18.8732 25.2575 19.0145 25.3982 19.1416C25.6092 19.3252 25.7921 19.5371 25.989 19.7349C26.2704 20.0174 26.3548 20.3423 26.2141 20.7096C26.0875 21.0768 25.7921 21.2746 25.4123 21.3029C25.1309 21.317 24.9059 21.2181 24.7089 21.0203C24.4838 20.7943 24.2728 20.5683 24.0478 20.3564C23.6398 19.9468 23.4569 19.4382 23.4429 18.8732C23.4429 18.6331 23.4851 18.3929 23.5695 18.1528C23.682 17.8137 23.7946 17.4747 23.9071 17.1357C24.0759 16.6413 24.5542 16.387 25.0325 16.5142C25.4264 16.6272 25.6936 16.9944 25.6936 17.4182V17.4323Z"
          fill="white"
        ></path>
        <path
          d="M30.1951 21.0202C30.1951 21.6841 29.6465 22.2351 28.9853 22.2351C28.3241 22.2351 27.7755 21.6841 27.7755 21.0202C27.7755 20.3422 28.3241 19.7913 28.9994 19.7913C29.6605 19.7913 30.1951 20.3422 30.1951 21.0202Z"
          fill="white"
        ></path>
        <path
          d="M18.2098 24.6084C18.885 24.6084 19.4196 25.1452 19.4196 25.8232C19.4196 26.4872 18.8709 27.0381 18.2098 27.0381C17.5346 27.0381 17 26.5013 17 25.8232C17 25.1452 17.5346 24.6084 18.2098 24.6084Z"
          fill="white"
        ></path>
      </g>
      <defs>
        <clipPath id="clip0_11547_4149">
          <rect
            width="23"
            height="24"
            fill="white"
            transform="translate(17 16.5)"
          ></rect>
        </clipPath>
      </defs>
    </svg>