              <svg
                width="56"
                height="48"
                viewBox="0 0 56 48"
                fill="none"
                xmlns="http://www.w3.org/2000/svg"
              >
                <path
                  fill-rule="evenodd"
                  clip-rule="evenodd"
                  d="M13.5437 0C14.7711 0 15.7662 0.99517 15.7662 2.22251C15.7662 3.44984 14.7711 4.44501 13.5437 4.44501C12.3164 4.44501 11.3212 3.44984 11.3212 2.22251C11.3212 0.99517 12.3164 0 13.5437 0Z"
                  fill="#253035"
                ></path>
                <path
                  d="M42.4412 13.8864V24.8962C42.4412 27.2299 44.1716 29.0086 46.4425 29.0086C48.7134 29.0086 50.4437 27.2299 50.4425 24.9651V13.8876C50.4425 12.3532 51.6868 11.1089 53.2212 11.1089H56V24.6749C56 29.953 51.7206 34.2324 46.4425 34.2324C41.1643 34.2324 36.885 29.953 36.885 24.6749V11.1089H39.6637C41.1982 11.1089 42.4425 12.3532 42.4425 13.8876"
                  fill="#4E91E6"
                ></path>
                <path
                  fill-rule="evenodd"
                  clip-rule="evenodd"
                  d="M29.6599 3.11254H32.4387V31.4537C32.4387 32.9882 31.1944 34.2325 29.6599 34.2325H26.8812V5.89007C26.8812 4.35559 28.1255 3.11133 29.6599 3.11133"
                  fill="#4E91E6"
                ></path>
                <path
                  d="M5.76499 3.11254V13.6628C7.52317 12.0691 9.76744 11.1138 12.2112 11.1138C17.8582 11.1138 22.4362 16.2142 22.4362 22.5057C22.4362 22.554 22.4362 22.6012 22.4362 22.6496C22.4362 22.6943 22.4362 22.739 22.4362 22.7838C22.4362 29.2856 17.4604 34.2313 11.3225 34.2313C5.18458 34.2313 0.384062 29.2856 0.212356 23.1175H0.20752V5.89007C0.20752 4.34592 1.46629 3.11133 2.98626 3.11133H5.76499V3.11254ZM11.21 16.2263C8.01773 16.2263 5.43126 19.0873 5.43126 22.6169C5.43126 26.1466 8.01894 29.0075 11.21 29.0075C14.4011 29.0075 16.9888 26.1466 16.9888 22.6169C16.9888 19.0873 14.4011 16.2263 11.21 16.2263Z"
                  fill="#4E91E6"
                ></path>
                <path
                  d="M0.20752 46.5961L0.769797 46.2587C1.16641 46.9879 1.62349 47.353 2.14345 47.353C2.36594 47.353 2.57392 47.301 2.76981 47.1983C2.96449 47.0943 3.11322 46.9564 3.21601 46.7823C3.31758 46.6082 3.36957 46.4232 3.36957 46.2285C3.36957 46.006 3.2946 45.7883 3.14466 45.5755C2.93789 45.2817 2.55941 44.9274 2.01043 44.5126C1.45783 44.0955 1.11442 43.7944 0.978988 43.6082C0.744404 43.2962 0.628321 42.9588 0.628321 42.5948C0.628321 42.3071 0.697245 42.0435 0.835093 41.8077C0.972942 41.5707 1.16762 41.3832 1.41793 41.2466C1.66823 41.1099 1.94151 41.0422 2.23535 41.0422C2.54732 41.0422 2.83874 41.1196 3.1108 41.2744C3.38287 41.4292 3.66945 41.7133 3.97296 42.1281L3.43245 42.538C3.18336 42.2079 2.97054 41.9902 2.7952 41.885C2.61987 41.7798 2.42882 41.7278 2.22083 41.7278C1.9536 41.7278 1.73474 41.8089 1.56545 41.9709C1.39616 42.1329 1.31152 42.3324 1.31152 42.5695C1.31152 42.7133 1.34175 42.8536 1.40221 42.9878C1.46267 43.1233 1.5715 43.2696 1.73111 43.4292C1.81817 43.5138 2.10354 43.7339 2.58601 44.0906C3.15917 44.5138 3.55216 44.8911 3.76619 45.2212C3.97901 45.5513 4.08542 45.8827 4.08542 46.2164C4.08542 46.6964 3.90283 47.1136 3.53886 47.4679C3.17368 47.8222 2.73112 48 2.20874 48C1.80608 48 1.44211 47.8923 1.11442 47.6783C0.786726 47.4643 0.485635 47.1039 0.209938 46.5997"
                  fill="#253035"
                ></path>
                <path
                  d="M10.2608 42.9312V47.8296H9.63926V46.988C9.37565 47.3097 9.0794 47.5503 8.7505 47.7123C8.4216 47.8744 8.06246 47.9554 7.67189 47.9554C6.97902 47.9554 6.38652 47.7039 5.89558 47.2008C5.40465 46.6978 5.15918 46.086 5.15918 45.3665C5.15918 44.647 5.40707 44.0581 5.90163 43.5563C6.3974 43.0545 6.99232 42.8042 7.68882 42.8042C8.09149 42.8042 8.45545 42.8901 8.78073 43.0605C9.106 43.2323 9.39258 43.4886 9.63805 43.8296V42.93H10.2596L10.2608 42.9312ZM7.74203 43.4136C7.39136 43.4136 7.06729 43.4995 6.77104 43.6724C6.47358 43.8453 6.23778 44.0872 6.06245 44.3991C5.88712 44.7111 5.80005 45.0412 5.80005 45.3883C5.80005 45.7353 5.88833 46.063 6.06487 46.3774C6.24141 46.6918 6.47962 46.9372 6.77709 47.1126C7.07576 47.2879 7.39499 47.3762 7.73719 47.3762C8.07939 47.3762 8.40829 47.2891 8.71785 47.115C9.0262 46.9409 9.26441 46.7051 9.43128 46.4088C9.59815 46.1126 9.68037 45.7776 9.68037 45.4064C9.68037 44.8405 9.49415 44.3665 9.12051 43.9856C8.74687 43.6047 8.28738 43.4148 7.74203 43.4148"
                  fill="#253035"
                ></path>
                <path
                  d="M11.6743 42.9312H12.3043V43.7776C12.5232 43.4656 12.7493 43.2371 12.9803 43.0932C13.2983 42.9009 13.6332 42.8054 13.9851 42.8054C14.2221 42.8054 14.4482 42.8526 14.661 42.9445C14.8739 43.0376 15.0492 43.1609 15.1834 43.3157C15.3188 43.4705 15.4361 43.6918 15.5353 43.9795C15.7445 43.595 16.0069 43.3036 16.3213 43.1041C16.6357 42.9046 16.9742 42.8042 17.337 42.8042C17.6756 42.8042 17.9742 42.8901 18.233 43.0605C18.4918 43.2323 18.684 43.4705 18.8098 43.7764C18.9356 44.0823 18.9984 44.5418 18.9984 45.1537V47.8284H18.3539V45.1537C18.3539 44.6289 18.3164 44.2673 18.2415 44.0702C18.1665 43.8743 18.0383 43.7147 17.8582 43.595C17.6768 43.4753 17.4615 43.4148 17.21 43.4148C16.9053 43.4148 16.626 43.5043 16.3733 43.6845C16.1205 43.8647 15.9355 44.1041 15.8194 44.4052C15.7034 44.7051 15.6441 45.2069 15.6441 45.9094V47.8272H15.0141V45.3193C15.0141 44.728 14.9778 44.3266 14.9041 44.115C14.8303 43.9034 14.7021 43.7341 14.5196 43.6059C14.337 43.4789 14.1193 43.4148 13.8666 43.4148C13.5752 43.4148 13.3031 43.5031 13.0492 43.6785C12.7952 43.8538 12.6078 44.0908 12.4869 44.387C12.3648 44.6845 12.3043 45.1392 12.3043 45.751V47.8272H11.6743V42.9287V42.9312Z"
                  fill="#253035"
                ></path>
                <path
                  d="M25.2089 42.9312V47.8296H24.5873V46.988C24.3237 47.3097 24.0263 47.5503 23.6986 47.7123C23.3697 47.8744 23.0106 47.9554 22.62 47.9554C21.9271 47.9554 21.3346 47.7039 20.8437 47.2008C20.3527 46.6978 20.1073 46.086 20.1073 45.3665C20.1073 44.647 20.3552 44.0581 20.8497 43.5563C21.3455 43.0545 21.9404 42.8042 22.6369 42.8042C23.0396 42.8042 23.4035 42.8901 23.7288 43.0605C24.0541 43.2323 24.3407 43.4886 24.5861 43.8296V42.93H25.2077L25.2089 42.9312ZM22.6901 43.4136C22.3394 43.4136 22.0154 43.4995 21.7191 43.6724C21.4229 43.8453 21.1859 44.0872 21.0105 44.3991C20.8352 44.7111 20.7469 45.0412 20.7469 45.3883C20.7469 45.7353 20.8352 46.063 21.0117 46.3774C21.1883 46.6918 21.4265 46.9372 21.724 47.1126C22.0226 47.2879 22.3419 47.3762 22.6841 47.3762C23.0263 47.3762 23.3552 47.2891 23.6647 47.115C23.9731 46.9409 24.2113 46.7051 24.3769 46.4088C24.5438 46.1126 24.626 45.7776 24.626 45.4064C24.626 44.8405 24.4398 44.3665 24.0662 43.9856C23.6925 43.6047 23.233 43.4148 22.6877 43.4148"
                  fill="#253035"
                ></path>
                <path
                  d="M26.6273 42.9312H27.2573V43.809C27.51 43.4729 27.7881 43.2214 28.0941 43.0545C28.4 42.8876 28.7337 42.8042 29.0941 42.8042C29.4544 42.8042 29.7857 42.8973 30.0687 43.0835C30.3529 43.2697 30.5621 43.52 30.6963 43.8356C30.8317 44.1512 30.8994 44.6422 30.8994 45.3072V47.8284H30.2694V45.4922C30.2694 44.9276 30.2464 44.5515 30.1993 44.3616C30.1267 44.0376 29.9865 43.7933 29.7785 43.6301C29.5717 43.4668 29.3009 43.3846 28.9683 43.3846C28.5874 43.3846 28.2452 43.5104 27.9441 43.7631C27.643 44.0158 27.4435 44.3278 27.348 44.699C27.2875 44.9421 27.2585 45.387 27.2585 46.0315V47.8284H26.6285V42.93L26.6273 42.9312Z"
                  fill="#253035"
                ></path>
                <path
                  d="M34.9248 41.207H36.2308C36.7556 41.207 37.1594 41.2687 37.4424 41.3932C37.7241 41.5178 37.9478 41.7088 38.1111 41.9676C38.2743 42.2264 38.3565 42.513 38.3565 42.8274C38.3565 43.1212 38.2852 43.3896 38.1413 43.6315C37.9974 43.8733 37.787 44.0692 37.5101 44.2191C37.8547 44.3364 38.1195 44.4731 38.3045 44.6315C38.4908 44.7887 38.6347 44.9797 38.7374 45.2034C38.8402 45.4271 38.8922 45.669 38.8922 45.9302C38.8922 46.461 38.6975 46.9108 38.3094 47.2784C37.9212 47.646 37.3989 47.8298 36.7447 47.8298H34.926V41.207H34.9248ZM35.573 41.8552V43.9761H35.9514C36.4122 43.9761 36.7495 43.9338 36.9672 43.8479C37.1836 43.7621 37.3553 43.6278 37.4811 43.4428C37.608 43.2578 37.6709 43.0535 37.6709 42.8286C37.6709 42.5251 37.5645 42.2881 37.3529 42.1151C37.1413 41.9422 36.8027 41.8564 36.3396 41.8564H35.573V41.8552ZM35.573 44.6424V47.1817H36.394C36.8777 47.1817 37.2332 47.1345 37.4581 47.0402C37.683 46.9459 37.8644 46.7984 38.001 46.5964C38.1377 46.3957 38.2066 46.178 38.2066 45.9435C38.2066 45.6496 38.1111 45.3921 37.9176 45.1732C37.7253 44.9543 37.4605 44.8044 37.1244 44.7234C36.8995 44.669 36.5065 44.6424 35.9466 44.6424H35.5718H35.573Z"
                  fill="#253035"
                ></path>
                <path
                  d="M44.9781 42.9312V47.8296H44.3566V46.988C44.093 47.3097 43.7955 47.5503 43.4678 47.7123C43.1389 47.8744 42.7798 47.9554 42.3892 47.9554C41.6963 47.9554 41.1038 47.7039 40.6129 47.2008C40.122 46.6978 39.8765 46.086 39.8765 45.3665C39.8765 44.647 40.1244 44.0581 40.6189 43.5563C41.1147 43.0545 41.7096 42.8042 42.4061 42.8042C42.8088 42.8042 43.1728 42.8901 43.498 43.0605C43.8233 43.2323 44.1099 43.4886 44.3554 43.8296V42.93H44.9769L44.9781 42.9312ZM42.4593 43.4136C42.1087 43.4136 41.7846 43.4995 41.4884 43.6724C41.1921 43.8453 40.9551 44.0872 40.7798 44.3991C40.6044 44.7111 40.5174 45.0412 40.5174 45.3883C40.5174 45.7353 40.6056 46.063 40.7822 46.3774C40.9587 46.6918 41.1969 46.9372 41.4956 47.1126C41.7943 47.2879 42.1135 47.3762 42.4557 47.3762C42.7979 47.3762 43.1268 47.2891 43.4364 47.115C43.7447 46.9409 43.9829 46.7051 44.1486 46.4088C44.3155 46.1126 44.3989 45.7776 44.3989 45.4064C44.3989 44.8405 44.2127 44.3665 43.839 43.9856C43.4654 43.6047 43.0059 43.4148 42.4606 43.4148"
                  fill="#253035"
                ></path>
                <path
                  d="M46.3965 42.9312H47.0265V43.809C47.278 43.4729 47.5573 43.2214 47.8632 43.0545C48.1692 42.8876 48.5029 42.8042 48.8632 42.8042C49.2236 42.8042 49.5537 42.8973 49.8379 43.0835C50.122 43.2697 50.3312 43.52 50.4654 43.8356C50.6009 44.1512 50.6686 44.6422 50.6686 45.3072V47.8284H50.0386V45.4922C50.0386 44.9276 50.0144 44.5515 49.9685 44.3616C49.8959 44.0376 49.7556 43.7933 49.5477 43.6301C49.3409 43.4668 49.07 43.3846 48.7375 43.3846C48.3566 43.3846 48.0144 43.5104 47.7133 43.7631C47.411 44.0158 47.2127 44.3278 47.1172 44.699C47.0567 44.9421 47.0277 45.387 47.0277 46.0315V47.8284H46.3977V42.93L46.3965 42.9312Z"
                  fill="#253035"
                ></path>
                <path
                  d="M52.0156 41.0405H52.6456V44.9088L54.9165 42.9317H55.8427L53.1498 45.2691L55.9999 47.8302H55.1123L52.6456 45.6246V47.8302H52.0156V41.0405Z"
                  fill="#253035"
                ></path>
              </svg>