<svg width="28" height="28" viewBox="0 0 28 28" fill="none" xmlns="http://www.w3.org/2000/svg">
<path fill-rule="evenodd" clip-rule="evenodd" d="M10.6667 12.8771C11.5409 12.0262 12.7001 11.5 14 11.5C16.8344 11.5 19 14.0016 19 16.9167C19 19.8317 16.8344 22.3333 14 22.3333C11.1656 22.3333 9 19.8317 9 16.9167C9 16.8154 9.00262 16.7146 9.00778 16.6144C9.00265 16.577 9 16.5388 9 16.5V7.33333C9 6.8731 9.3731 6.5 9.83333 6.5C10.2936 6.5 10.6667 6.8731 10.6667 7.33333V12.8771ZM14 13.1667C12.232 13.1667 10.6667 14.7691 10.6667 16.9167C10.6667 19.0643 12.232 20.6667 14 20.6667C15.768 20.6667 17.3333 19.0643 17.3333 16.9167C17.3333 14.7691 15.768 13.1667 14 13.1667Z" fill="#4E91E6"/>
<path d="M14 6.5C14 5.80964 14.5596 5.25 15.25 5.25H15.2583C15.9487 5.25 16.5083 5.80964 16.5083 6.5V6.50833C16.5083 7.19869 15.9487 7.75833 15.2583 7.75833H15.25C14.5596 7.75833 14 7.19869 14 6.50833V6.5Z" fill="#4E91E6"/>
</svg>
