<svg width="52" height="32" viewBox="0 0 52 32" fill="none" xmlns="http://www.w3.org/2000/svg">
<g clip-path="url(#clip0_31_26)">
<path fill-rule="evenodd" clip-rule="evenodd" d="M27.427 2.90918H30.0109V29.4027C30.0109 30.8372 28.854 32.0001 27.427 32.0001H24.8431V5.50658C24.8431 4.07208 26 2.90918 27.427 2.90918ZM39.3127 13.4025V23.2726C39.3127 25.4543 40.9215 27.1168 43.0335 27.1168C45.1244 27.1168 46.7543 25.4541 46.7537 23.3362L46.7541 13.4025C46.7543 11.968 47.9111 10.8052 49.3381 10.8051H51.922V23.0649C51.922 27.9996 47.9425 31.9999 43.0335 31.9999C38.1245 31.9999 34.145 27.9996 34.145 23.0649V10.8051H36.7289C38.1559 10.8051 39.3127 11.968 39.3127 13.4025ZM5.20569 12.7729L5.20581 2.9098H2.62195C1.20831 2.9098 0.0380859 4.06383 0.0380859 5.5072V21.6111L0.0423897 21.6112C0.201743 27.3772 4.76615 32.0007 10.3736 32.0007C16.0817 32.0007 20.7082 27.3772 20.709 21.2994C20.709 21.2575 20.7088 21.2157 20.7082 21.1741C20.7087 21.1293 20.709 21.0845 20.709 21.0397C20.709 15.1582 16.4518 10.3903 11.2004 10.3903C8.92778 10.3903 6.84142 11.2832 5.20569 12.7729ZM4.89574 21.1436C4.89574 17.8442 7.30195 15.1695 10.2702 15.1695C13.2384 15.1695 15.6446 17.8442 15.6446 21.1436C15.6446 24.4429 13.2384 27.1176 10.2702 27.1176C7.30195 27.1176 4.89574 24.4429 4.89574 21.1436Z" fill="#4E91E6"/>
<path d="M12.4401 4.15584C13.5817 4.15584 14.5071 3.22553 14.5071 2.07792C14.5071 0.930317 13.5817 0 12.4401 0C11.2984 0 10.373 0.930317 10.373 2.07792C10.373 3.22553 11.2984 4.15584 12.4401 4.15584Z" fill="#0C1011"/>
</g>
<defs>
<clipPath id="clip0_31_26">
<rect width="52" height="32" fill="white"/>
</clipPath>
</defs>
</svg>
