<svg width="24" height="24" viewBox="0 0 24 24" fill="none" xmlns="http://www.w3.org/2000/svg">
                        <path d="M4.5 11.5L10 9L8 4H5C4.46957 4 3.96086 4.21071 3.58579 4.58579C3.21071 4.96086 3 5.46957 3 6C3.23705 9.90074 4.8935 13.5798 7.65683 16.3432C10.4202 19.1065 14.0993 20.763 18 21C18.5304 21 19.0391 20.7893 19.4142 20.4142C19.7893 20.0391 20 19.5304 20 19V16L15 14L12.5 19.5" stroke="#718E9C" stroke-linecap="round" stroke-linejoin="round"></path>
                        <path d="M14 8C14.5304 8 15.0391 8.21071 15.4142 8.58579C15.7893 8.96086 16 9.46957 16 10" stroke="#718E9C" stroke-linecap="round" stroke-linejoin="round"></path>
                        <path d="M14 4C15.5913 4 17.1174 4.63214 18.2426 5.75736C19.3679 6.88258 20 8.4087 20 10" stroke="#718E9C" stroke-linecap="round" stroke-linejoin="round"></path>
                    </svg>